<?xml version="1.0" encoding="UTF-8"?>
<svg width="800" height="600" viewBox="0 0 800 600" xmlns="http://www.w3.org/2000/svg">
  <defs>
    <!-- Definitions for gradients and patterns -->
    <linearGradient id="headerGradient" x1="0%" y1="0%" x2="100%" y2="0%">
      <stop offset="0%" stop-color="#2E7D32" />
      <stop offset="100%" stop-color="#66BB6A" />
    </linearGradient>
    <linearGradient id="danceGradient" x1="0%" y1="0%" x2="0%" y2="100%">
      <stop offset="0%" stop-color="#43A047" stop-opacity="0.8" />
      <stop offset="100%" stop-color="#2E7D32" stop-opacity="0.9" />
    </linearGradient>
    <linearGradient id="musicGradient" x1="0%" y1="0%" x2="0%" y2="100%">
      <stop offset="0%" stop-color="#1E88E5" stop-opacity="0.8" />
      <stop offset="100%" stop-color="#1565C0" stop-opacity="0.9" />
    </linearGradient>
    <linearGradient id="fusionGradient" x1="0%" y1="0%" x2="0%" y2="100%">
      <stop offset="0%" stop-color="#7E57C2" stop-opacity="0.8" />
      <stop offset="100%" stop-color="#512DA8" stop-opacity="0.9" />
    </linearGradient>
    <linearGradient id="outputGradient" x1="0%" y1="0%" x2="0%" y2="100%">
      <stop offset="0%" stop-color="#FB8C00" stop-opacity="0.8" />
      <stop offset="100%" stop-color="#EF6C00" stop-opacity="0.9" />
    </linearGradient>
    <filter id="shadow" x="-20%" y="-20%" width="140%" height="140%">
      <feDropShadow dx="2" dy="2" stdDeviation="3" flood-opacity="0.3"/>
    </filter>
    <!-- Arrow marker -->
    <marker id="arrowhead" markerWidth="10" markerHeight="7" refX="9" refY="3.5" orient="auto">
      <polygon points="0 0, 10 3.5, 0 7" fill="#546E7A"/>
    </marker>
    <!-- Arrow marker for green -->
    <marker id="greenArrow" markerWidth="10" markerHeight="7" refX="9" refY="3.5" orient="auto">
      <polygon points="0 0, 10 3.5, 0 7" fill="#388E3C"/>
    </marker>
    <!-- Arrow marker for blue -->
    <marker id="blueArrow" markerWidth="10" markerHeight="7" refX="9" refY="3.5" orient="auto">
      <polygon points="0 0, 10 3.5, 0 7" fill="#1565C0"/>
    </marker>
    <!-- Musical note pattern -->
    <pattern id="musicPattern" patternUnits="userSpaceOnUse" width="30" height="30">
      <rect width="30" height="30" fill="#E3F2FD"/>
      <path d="M20,5 L20,20 C20,23 17,25 15,23 C13,21 15,18 17,19 C18,19.5 19,20 20,20" stroke="#1565C0" stroke-width="1.5" fill="none"/>
      <circle cx="15" cy="19" r="2" fill="#1565C0"/>
    </pattern>
    <!-- Dance pattern -->
    <pattern id="dancePattern" patternUnits="userSpaceOnUse" width="30" height="30">
      <rect width="30" height="30" fill="#E8F5E9"/>
      <path d="M15,5 L15,15 M10,10 L15,15 L20,10 M15,15 L15,25 M12,25 L15,30 M15,25 L18,30" stroke="#388E3C" stroke-width="1.5" fill="none"/>
    </pattern>
  </defs>

  <!-- Background -->
  <rect width="800" height="600" fill="#F5F5F5"/>
  
  <!-- Header -->
  <rect x="50" y="30" width="700" height="60" rx="5" fill="url(#headerGradient)" filter="url(#shadow)"/>
  <text x="400" y="70" font-family="Roboto, sans-serif" font-size="24" font-weight="bold" text-anchor="middle" fill="white">DanceFormer Architecture</text>
  
  <!-- Input Streams -->
  <g transform="translate(50, 120)">
    <!-- Dance Stream -->
    <g transform="translate(0, 0)">
      <rect width="300" height="120" rx="10" fill="url(#danceGradient)" filter="url(#shadow)"/>
      <text x="150" y="30" font-family="Roboto, sans-serif" font-size="18" font-weight="bold" text-anchor="middle" fill="white">Dance Stream</text>
      <text x="150" y="50" font-family="Roboto, sans-serif" font-size="12" text-anchor="middle" fill="white">3D Pose Data Processing</text>
      
      <!-- Dance sub-modules -->
      <g transform="translate(20, 70)">
        <rect width="120" height="30" rx="5" fill="#C8E6C9" stroke="#4CAF50" stroke-width="1.5"/>
        <text x="60" y="20" font-family="Roboto, sans-serif" font-size="12" text-anchor="middle">Spatial Analysis</text>
      </g>
      
      <g transform="translate(160, 70)">
        <rect width="120" height="30" rx="5" fill="#C8E6C9" stroke="#4CAF50" stroke-width="1.5"/>
        <text x="60" y="20" font-family="Roboto, sans-serif" font-size="12" text-anchor="middle">Temporal Analysis</text>
      </g>
      
      <!-- Animation effect for dance stream -->
      <rect x="5" y="5" width="290" height="110" rx="8" stroke="#66BB6A" stroke-width="2" fill="none" stroke-dasharray="10,5">
        <animate attributeName="stroke-dashoffset" from="0" to="30" dur="3s" repeatCount="indefinite" />
      </rect>
    </g>
    
    <!-- Music Stream -->
    <g transform="translate(400, 0)">
      <rect width="300" height="120" rx="10" fill="url(#musicGradient)" filter="url(#shadow)"/>
      <text x="150" y="30" font-family="Roboto, sans-serif" font-size="18" font-weight="bold" text-anchor="middle" fill="white">Music Stream</text>
      <text x="150" y="50" font-family="Roboto, sans-serif" font-size="12" text-anchor="middle" fill="white">Audio Feature Processing</text>
      
      <!-- Music sub-modules -->
      <g transform="translate(20, 70)">
        <rect width="120" height="30" rx="5" fill="#BBDEFB" stroke="#2196F3" stroke-width="1.5"/>
        <text x="60" y="20" font-family="Roboto, sans-serif" font-size="12" text-anchor="middle">Rhythm Analysis</text>
      </g>
      
      <g transform="translate(160, 70)">
        <rect width="120" height="30" rx="5" fill="#BBDEFB" stroke="#2196F3" stroke-width="1.5"/>
        <text x="60" y="20" font-family="Roboto, sans-serif" font-size="12" text-anchor="middle">Melody Analysis</text>
      </g>
      
      <!-- Animation effect for music stream -->
      <rect x="5" y="5" width="290" height="110" rx="8" stroke="#42A5F5" stroke-width="2" fill="none" stroke-dasharray="10,5">
        <animate attributeName="stroke-dashoffset" from="0" to="30" dur="3s" repeatCount="indefinite" />
      </rect>
    </g>
  </g>
  
  <!-- Cross-Modal Attention Module -->
  <g transform="translate(200, 280)">
    <rect width="400" height="120" rx="10" fill="url(#fusionGradient)" filter="url(#shadow)"/>
    <text x="200" y="30" font-family="Roboto, sans-serif" font-size="18" font-weight="bold" text-anchor="middle" fill="white">Cross-Modal Attention</text>
    
    <!-- Cross-Modal components -->
    <g transform="translate(50, 50)">
      <rect width="120" height="60" rx="5" fill="#D1C4E9" stroke="#7E57C2" stroke-width="1.5"/>
      <text x="60" y="25" font-family="Roboto, sans-serif" font-size="12" font-weight="bold" text-anchor="middle">Query Mapping</text>
      <text x="60" y="45" font-family="Roboto, sans-serif" font-size="10" text-anchor="middle">Dance → Query</text>
    </g>
    
    <g transform="translate(230, 50)">
      <rect width="120" height="60" rx="5" fill="#D1C4E9" stroke="#7E57C2" stroke-width="1.5"/>
      <text x="60" y="25" font-family="Roboto, sans-serif" font-size="12" font-weight="bold" text-anchor="middle">Key-Value Mapping</text>
      <text x="60" y="45" font-family="Roboto, sans-serif" font-size="10" text-anchor="middle">Music → Key/Value</text>
    </g>
    
    <!-- Animation effect for fusion -->
    <rect x="5" y="5" width="390" height="110" rx="8" stroke="#9575CD" stroke-width="2" fill="none" stroke-dasharray="10,5">
      <animate attributeName="stroke-dashoffset" from="0" to="30" dur="3s" repeatCount="indefinite" />
    </rect>
  </g>
  
  <!-- Multi-Scale Transformer -->
  <g transform="translate(200, 420)">
    <rect width="400" height="100" rx="10" fill="#FFF3E0" stroke="#FFB74D" stroke-width="2"/>
    <text x="200" y="25" font-family="Roboto, sans-serif" font-size="16" font-weight="bold" text-anchor="middle">Multi-Scale Transformer</text>
    
    <!-- Transformer scales -->
    <g transform="translate(30, 45)">
      <rect width="100" height="40" rx="5" fill="url(#outputGradient)" filter="url(#shadow)"/>
      <text x="50" y="25" font-family="Roboto, sans-serif" font-size="12" text-anchor="middle" fill="white">Frame Level</text>
    </g>
    
    <g transform="translate(150, 45)">
      <rect width="100" height="40" rx="5" fill="url(#outputGradient)" filter="url(#shadow)"/>
      <text x="50" y="25" font-family="Roboto, sans-serif" font-size="12" text-anchor="middle" fill="white">Phrase Level</text>
    </g>
    
    <g transform="translate(270, 45)">
      <rect width="100" height="40" rx="5" fill="url(#outputGradient)" filter="url(#shadow)"/>
      <text x="50" y="25" font-family="Roboto, sans-serif" font-size="12" text-anchor="middle" fill="white">Sequence Level</text>
    </g>
  </g>
  
  <!-- Output layer -->
  <g transform="translate(280, 540)">
    <rect width="240" height="40" rx="5" fill="#FF9800" stroke="#F57C00" stroke-width="2"/>
    <text x="120" y="25" font-family="Roboto, sans-serif" font-size="14" font-weight="bold" text-anchor="middle">Multimodal Dance-Music Features</text>
  </g>
  
  <!-- Connection Lines with Animation -->
  <!-- Dance stream to Cross-Modal Attention -->
  <line x1="200" y1="240" x2="250" y2="280" stroke="#388E3C" stroke-width="2" marker-end="url(#greenArrow)">
    <animate attributeName="stroke-dasharray" from="5,5" to="0,10" dur="3s" repeatCount="indefinite" />
  </line>
  
  <!-- Music stream to Cross-Modal Attention -->
  <line x1="600" y1="240" x2="550" y2="280" stroke="#1565C0" stroke-width="2" marker-end="url(#blueArrow)">
    <animate attributeName="stroke-dasharray" from="5,5" to="0,10" dur="3s" repeatCount="indefinite" />
  </line>
  
  <!-- Cross-Modal Attention to Multi-Scale Transformer -->
  <line x1="400" y1="400" x2="400" y2="420" stroke="#7E57C2" stroke-width="2" marker-end="url(#arrowhead)">
    <animate attributeName="stroke-dasharray" from="5,5" to="0,10" dur="3s" repeatCount="indefinite" />
  </line>
  
  <!-- Multi-Scale Transformer to Output -->
  <line x1="400" y1="520" x2="400" y2="540" stroke="#FB8C00" stroke-width="2" marker-end="url(#arrowhead)">
    <animate attributeName="stroke-dasharray" from="5,5" to="0,10" dur="3s" repeatCount="indefinite" />
  </line>
  
  <!-- Decorative elements -->
  <!-- Dance pattern in the top left corner -->
  <rect x="60" y="40" width="40" height="40" fill="url(#dancePattern)" rx="5" />
  
  <!-- Music pattern in the top right corner -->
  <rect x="700" y="40" width="40" height="40" fill="url(#musicPattern)" rx="5" />
  
  <!-- Animated dance and music symbols -->
  <g transform="translate(730, 200)">
    <!-- Dancing figure -->
    <path d="M0,0 L0,10 M-5,5 L0,10 L5,5 M0,10 L0,20 M-3,20 L0,25 M0,20 L3,25" stroke="#388E3C" stroke-width="2" stroke-linecap="round">
      <animateTransform attributeName="transform" type="rotate" from="-10 0 0" to="10 0 0" dur="2s" repeatCount="indefinite" />
    </path>
  </g>
  
  <g transform="translate(70, 200)">
    <!-- Musical note -->
    <path d="M0,0 L0,15 C0,18 -3,20 -5,18 C-7,16 -5,13 -3,14 C-2,14.5 -1,15 0,15" stroke="#1565C0" stroke-width="2" fill="none">
      <animateTransform attributeName="transform" type="translate" values="0,0; 0,-5; 0,0" dur="2s" repeatCount="indefinite" />
    </path>
    <circle cx="-5" cy="14" r="2" fill="#1565C0">
      <animateTransform attributeName="transform" type="translate" values="0,0; 0,-5; 0,0" dur="2s" repeatCount="indefinite" />
    </circle>
  </g>
  
  <!-- Attention visualization -->
  <g transform="translate(400, 240)">
    <path d="M0,0 C50,20 -50,40 0,60" stroke="#9575CD" stroke-width="2" stroke-dasharray="5,3" fill="none">
      <animate attributeName="d" values="M0,0 C50,20 -50,40 0,60; M0,0 C-50,20 50,40 0,60; M0,0 C50,20 -50,40 0,60" dur="6s" repeatCount="indefinite" />
    </path>
  </g>
</svg>